<svg xmlns="http://www.w3.org/2000/svg" width="640" height="480" viewBox="0 0 640 480">
  <defs>
    <linearGradient id="g1" x1="0" y1="0" x2="640" y2="480" gradientUnits="userSpaceOnUse">
      <stop offset="0" stop-color="#0b4c86"/>
      <stop offset="1" stop-color="#2ecc63"/>
    </linearGradient>
    <linearGradient id="gbase" x1="0" y1="0" x2="640" y2="480" gradientUnits="userSpaceOnUse">
      <stop offset="0" stop-color="#182c45"/>
      <stop offset="1" stop-color="#0f1c2e"/>
    </linearGradient>
    <radialGradient id="glow" cx="50%" cy="38%" r="65%">
      <stop offset="0" stop-color="#ffffff" stop-opacity="0.16"/>
      <stop offset="1" stop-color="#ffffff" stop-opacity="0"/>
    </radialGradient>
  </defs>
  <rect width="640" height="480" fill="url(#gbase)"/>
  <g opacity="0.9"><polygon points="0.0,0.0 396.8,0.0 243.2,480.0" fill="url(#g1)" opacity="0.9"/>
<polygon points="396.8,0.0 640.0,0.0 640.0,264.0 243.2,480.0" fill="url(#g1)" opacity="1"/>
<polygon points="0.0,0.0 243.2,480.0 0.0,480.0" fill="url(#g1)" opacity="0.75"/></g>
  <rect width="640" height="480" fill="url(#glow)"/>
  <g transform="translate(320.0,240.0) scale(1.25)">
    
<g stroke-linecap="round">
  <g transform="rotate(-60)"><rect x="-16" y="-100" width="32" height="130" rx="14" fill="#722f37" stroke="#f7f8f6" stroke-width="3" stroke-opacity="0.5"/></g><g transform="rotate(-36)"><rect x="-16" y="-100" width="32" height="130" rx="14" fill="#f4c430" stroke="#f7f8f6" stroke-width="3" stroke-opacity="0.5"/></g><g transform="rotate(-12)"><rect x="-16" y="-100" width="32" height="130" rx="14" fill="#2f6bf0" stroke="#f7f8f6" stroke-width="3" stroke-opacity="0.5"/></g><g transform="rotate(12)"><rect x="-16" y="-100" width="32" height="130" rx="14" fill="#4cbb17" stroke="#f7f8f6" stroke-width="3" stroke-opacity="0.5"/></g><g transform="rotate(36)"><rect x="-16" y="-100" width="32" height="130" rx="14" fill="#d2222d" stroke="#f7f8f6" stroke-width="3" stroke-opacity="0.5"/></g><g transform="rotate(60)"><rect x="-16" y="-100" width="32" height="130" rx="14" fill="#ffa552" stroke="#f7f8f6" stroke-width="3" stroke-opacity="0.5"/></g>
  <circle cx="0" cy="30" r="14" fill="#f7f8f6"/>
</g>
  </g>
</svg>