<svg xmlns="http://www.w3.org/2000/svg" width="640" height="480" viewBox="0 0 640 480">
  <defs>
    <linearGradient id="g1" x1="0" y1="0" x2="640" y2="480" gradientUnits="userSpaceOnUse">
      <stop offset="0" stop-color="#38b6e0"/>
      <stop offset="1" stop-color="#0b4c86"/>
    </linearGradient>
    <linearGradient id="gbase" x1="0" y1="0" x2="640" y2="480" gradientUnits="userSpaceOnUse">
      <stop offset="0" stop-color="#182c45"/>
      <stop offset="1" stop-color="#0f1c2e"/>
    </linearGradient>
    <radialGradient id="glow" cx="50%" cy="38%" r="65%">
      <stop offset="0" stop-color="#ffffff" stop-opacity="0.16"/>
      <stop offset="1" stop-color="#ffffff" stop-opacity="0"/>
    </radialGradient>
  </defs>
  <rect width="640" height="480" fill="url(#gbase)"/>
  <g opacity="0.9"><polygon points="0.0,0.0 396.8,0.0 243.2,480.0" fill="url(#g1)" opacity="0.9"/>
<polygon points="396.8,0.0 640.0,0.0 640.0,264.0 243.2,480.0" fill="url(#g1)" opacity="1"/>
<polygon points="0.0,0.0 243.2,480.0 0.0,480.0" fill="url(#g1)" opacity="0.75"/></g>
  <rect width="640" height="480" fill="url(#glow)"/>
  <g transform="translate(320.0,240.0) scale(1.25)">
    
<g stroke="#f7f8f6" stroke-width="5" fill="none" stroke-linecap="round" stroke-linejoin="round">
  <polygon points="-90,70 -90,-10 0,-70 90,-10 90,70" fill="#f7f8f6" fill-opacity="0.08"/>
  <line x1="-60" y1="30" x2="-60" y2="70" stroke-opacity="0.6"/>
  <line x1="-20" y1="10" x2="-20" y2="70" stroke-opacity="0.6"/>
  <line x1="20" y1="10" x2="20" y2="70" stroke-opacity="0.6"/>
  <line x1="60" y1="30" x2="60" y2="70" stroke-opacity="0.6"/>
  <g transform="translate(0,-95)">
    <path d="M0,-26 L28,-14 L28,10 C28,30 14,42 0,48 C-14,42 -28,30 -28,10 L-28,-14 Z"
          fill="#7be69a" fill-opacity="0.85" stroke="#f7f8f6" stroke-width="4"/>
    <path d="M-12,10 L-3,20 L15,-4" stroke="#0f1c2e" stroke-width="5"/>
  </g>
</g>
  </g>
</svg>